<svg xmlns="http://www.w3.org/2000/svg" version="1.1" height="320" width="808" viewBox="0 0 808 320" class="diagram" text-anchor="middle" font-family="monospace" font-size="13px" stroke-linecap="round">
<g class="text">
<text x="120" y="20">&amp;$$$$$$</text>
<text x="188" y="20">$$$$$$</text>
<text x="120" y="36">&amp;$$$$$$</text>
<text x="188" y="36">$$$$$$</text>
<text x="120" y="52">&amp;$$$$$$</text>
<text x="188" y="52">$$$$$$</text>
<text x="120" y="68">&amp;$$$$$$</text>
<text x="96" y="84">$&amp;$$$$$$$$$$&amp;</text>
<text x="188" y="84">&amp;$$$$$</text>
<text x="292" y="84">&amp;&amp;$$$$$&amp;</text>
<text x="420" y="84">&amp;$$$&amp;$$$$$$$</text>
<text x="612" y="84">&amp;&amp;$$$$$$$$$$$&amp;</text>
<text x="732" y="84">&amp;$$$$$$$$&amp;</text>
<text x="84" y="100">&amp;$$$$$$$$$$$$$$&amp;</text>
<text x="188" y="100">$$$$$$</text>
<text x="292" y="100">$$$$$$$$$$$$$&amp;</text>
<text x="428" y="100">$$$$$$$$$$$$$$$&amp;</text>
<text x="660" y="100">&amp;$$$$$$$$$$$$$$$&amp; $$$$$$$$$$$$$$</text>
<text x="80" y="116">$$$$$$$$$$$$$$$$&amp;</text>
<text x="188" y="116">$$$$$$</text>
<text x="292" y="116">$$$$$$$$$$$$$$</text>
<text x="428" y="116">$$$$$$$$$$$$$$$$</text>
<text x="660" y="116">&amp;$$$$$$$$$$$$$$$$&amp; $$$$$$$$$$$$$$$$&amp;</text>
<text x="36" y="132">&amp;$$$$$$$</text>
<text x="120" y="132">&amp;$$$$$$</text>
<text x="188" y="132">$$$$$$</text>
<text x="248" y="132">$&amp;&amp;</text>
<text x="324" y="132">$$$$$$</text>
<text x="388" y="132">$$$$$$</text>
<text x="508" y="132">$$$$$$&amp; $$$$$$$$</text>
<text x="620" y="132">$$$$$$</text>
<text x="692" y="132">$$$$$$$&amp;</text>
<text x="776" y="132">$$$$$$$</text>
<text x="28" y="148">$$$$$$</text>
<text x="120" y="148">&amp;$$$$$&amp;</text>
<text x="188" y="148">$$$$$$</text>
<text x="300" y="148">$$$$$$$$$$$$</text>
<text x="388" y="148">$$$$$$</text>
<text x="500" y="148">&amp;$$$$$$ $$$$$$</text>
<text x="620" y="148">$$$$$$</text>
<text x="684" y="148">$$$$$$</text>
<text x="780" y="148">$$$$$$</text>
<text x="28" y="164">$$$$$$</text>
<text x="120" y="164">&amp;$$$$$&amp;</text>
<text x="188" y="164">$$$$$$</text>
<text x="292" y="164">$$$$$$$$$$$$$$</text>
<text x="388" y="164">$$$$$$</text>
<text x="500" y="164">&amp;$$$$$&amp; $$$$$$</text>
<text x="620" y="164">$$$$$$</text>
<text x="684" y="164">$$$$$$</text>
<text x="780" y="164">$$$$$$</text>
<text x="32" y="180">$$$$$$&amp;</text>
<text x="120" y="180">&amp;$$$$$&amp;</text>
<text x="188" y="180">$$$$$$</text>
<text x="288" y="180">$$$$$$$$$&amp;$$$$$</text>
<text x="388" y="180">$$$$$$</text>
<text x="500" y="180">&amp;$$$$$&amp; $$$$$$</text>
<text x="620" y="180">&amp;$$$$$</text>
<text x="688" y="180">$$$$$$$</text>
<text x="776" y="180">&amp;$$$$$$</text>
<text x="76" y="196">&amp;$$$$$$$$&amp;$&amp;$$$$$&amp;</text>
<text x="188" y="196">$$$$$$</text>
<text x="252" y="196">$$$$$&amp;</text>
<text x="324" y="196">$$$$$$</text>
<text x="388" y="196">$$$$$$</text>
<text x="544" y="196">&amp;$$$$$&amp; &amp;$$$$$$$$$&amp;$$$$$$</text>
<text x="732" y="196">$$$$$$$$&amp;&amp;&amp;$$$$$$&amp;</text>
<text x="80" y="212">$$$$$$$$$$$$$$$$$</text>
<text x="188" y="212">$$$$$$</text>
<text x="288" y="212">$$$$$$$$$$$$$$$</text>
<text x="388" y="212">$$$$$$</text>
<text x="472" y="212">&amp;$$$$$&amp;</text>
<text x="580" y="212">$$$$$$$$$$$$$$$$</text>
<text x="732" y="212">$$$$$$$$$$$$$$$&amp;</text>
<text x="88" y="228">$$$$$$$$$$$$$$$</text>
<text x="188" y="228">$$$$$$</text>
<text x="292" y="228">$$$$$$$$$$$$$$</text>
<text x="388" y="228">$$$$$$</text>
<text x="472" y="228">&amp;$$$$$&amp;</text>
<text x="584" y="228">$$$$$$$$$$$$$$$</text>
<text x="728" y="228">&amp;$$$$$$$$$$$$</text>
<text x="80" y="244">&amp;$$$$$$</text>
<text x="184" y="244">&amp;$$$$$$</text>
<text x="296" y="244">&amp;$$$$$$$$$&amp;</text>
<text x="572" y="244">&amp;&amp;</text>
<text x="620" y="244">$$$$$$</text>
<text x="732" y="244">$$$$$&amp;</text>
<text x="180" y="260">$$$$$$$&amp;</text>
<text x="516" y="260">$&amp;</text>
<text x="616" y="260">$$$$$$&amp;</text>
<text x="164" y="276">&amp;$$$$$$$$$</text>
<text x="572" y="276">$$$$$$$$$$$$$$$$</text>
<text x="156" y="292">&amp;$$$$$$$</text>
<text x="568" y="292">$$$$$$$$$$$$$$&amp;</text>
<text x="164" y="308">&amp;$</text>
<text x="560" y="308">&amp;$$$$$$$$$$&amp;&amp;</text>
</g>
</svg>
